<?xml version="1.0" encoding="UTF-8" standalone="no"?>
<!DOCTYPE svg PUBLIC "-//W3C//DTD SVG 1.1//EN" "http://www.w3.org/Graphics/SVG/1.1/DTD/svg11.dtd">
<svg width="100%" height="100%" viewBox="0 0 800 600" version="1.1" xmlns="http://www.w3.org/2000/svg" xmlns:xlink="http://www.w3.org/1999/xlink" xml:space="preserve" xmlns:serif="http://www.serif.com/" style="fill-rule:evenodd;clip-rule:evenodd;stroke-linejoin:round;stroke-miterlimit:2;">
    <g transform="matrix(1.3282,0,0,0.996147,-148.012,-55.8556)">
        <path d="M412.599,56.072L699.019,264.168L589.616,600.876L235.581,600.876L126.178,264.168L412.599,56.072Z" style="fill:rgb(28,81,92);fill-opacity:0.5;"/>
    </g>
    <g transform="matrix(2.39661,0,0,2.0908,-557.611,-301.123)">
        <g opacity="0.5">
            <g transform="matrix(5.78072e-17,1,-0.944063,6.12323e-17,558.833,82.9734)">
                <path id="outer-D-segment" serif:id="outer D segment" d="M272.404,287.135C279.078,275.574 282.592,262.46 282.592,249.111C282.592,207.138 248.516,173.062 206.544,173.062C164.572,173.062 130.496,207.138 130.496,249.111C130.496,262.46 134.009,275.574 140.684,287.135L272.404,287.135Z"/>
            </g>
            <g transform="matrix(0.944063,0,0,1,22.5413,0)">
                <g id="left-M" serif:id="left M" transform="matrix(1.04672,0,0,1.18172,-52.1583,-330.648)">
                    <path d="M461.012,589.057L425.394,589.057L434.298,460.715L452.108,460.715L461.012,589.057Z"/>
                </g>
                <g id="mid-M" serif:id="mid M" transform="matrix(-2.40182,-2.94138e-16,9.65237e-17,-0.788176,1519.07,678.054)">
                    <path d="M461.012,589.057L425.394,589.057L434.298,460.715L452.108,460.715L461.012,589.057Z"/>
                </g>
                <g id="right-M" serif:id="right M" transform="matrix(1.04672,0,0,1.18599,33.4849,-332.617)">
                    <path d="M461.012,589.057L425.394,589.057L434.298,460.715L452.108,460.715L461.012,589.057Z"/>
                </g>
            </g>
        </g>
    </g>
</svg>
